<?xml version="1.0" standalone="no"?>
<!DOCTYPE svg PUBLIC "-//W3C//DTD SVG 20010904//EN"
 "http://www.w3.org/TR/2001/REC-SVG-20010904/DTD/svg10.dtd">
<svg version="1.0" xmlns="http://www.w3.org/2000/svg"
 width="1200.000000pt" height="1200.000000pt" viewBox="0 0 1200.000000 1200.000000"
 preserveAspectRatio="xMidYMid meet">

<g transform="translate(0.000000,1200.000000) scale(0.100000,-0.100000)"
fill="#000000" stroke="none">
<path d="M5475 10559 c-111 -15 -185 -37 -220 -67 -18 -15 -111 -98 -207 -186
-164 -150 -179 -161 -288 -213 -194 -93 -648 -292 -998 -438 l-334 -139 -54
-82 c-250 -375 -369 -964 -464 -2279 -17 -231 -48 -609 -70 -840 -110 -1160
-141 -1782 -175 -3415 -3 -146 -8 -363 -11 -482 l-6 -218 500 0 500 0 6 92 c3
51 10 233 16 403 17 491 29 772 45 1025 8 129 26 442 40 695 47 854 85 1291
151 1740 28 188 71 432 81 455 7 19 34 -123 67 -355 61 -432 62 -520 12 -895
-19 -151 -47 -363 -61 -470 -14 -107 -30 -197 -36 -201 -6 -3 -24 -111 -40
-240 -24 -185 -27 -238 -18 -256 9 -16 8 -50 -5 -150 -8 -70 -29 -252 -46
-403 -17 -151 -44 -385 -60 -520 -41 -348 -58 -513 -70 -685 -10 -146 -30
-544 -30 -596 0 -30 12 -35 185 -88 266 -82 698 -152 1150 -187 50 -3 93 -11
96 -16 19 -30 1105 -44 1449 -20 522 37 1016 99 1300 162 101 23 314 84 372
107 l41 16 -7 201 c-12 356 -37 646 -106 1226 -80 678 -107 935 -99 938 5 2 9
20 9 39 0 67 -50 438 -64 473 -18 47 -113 753 -132 985 -6 79 3 223 32 465 16
135 59 406 72 455 8 26 10 27 15 10 14 -44 79 -448 106 -667 58 -452 82 -795
171 -2418 5 -96 16 -400 25 -675 8 -275 18 -533 21 -572 l6 -73 499 0 499 0 0
138 c-1 214 -33 1510 -50 2032 -21 603 -55 1102 -134 1950 -20 206 -45 497
-56 645 -11 149 -27 360 -35 470 -81 1067 -211 1654 -447 2006 l-51 77 -131
52 c-481 193 -1275 550 -1339 603 -23 19 -113 100 -200 181 -86 80 -170 152
-185 160 -15 7 -63 22 -107 32 -71 16 -137 18 -570 20 -269 1 -521 -2 -560 -7z
m1106 -52 c42 -8 89 -22 105 -30 16 -8 81 -63 144 -122 127 -119 251 -229 291
-260 31 -24 434 -745 422 -756 -4 -4 -89 -24 -187 -44 l-179 -38 -56 59 c-105
111 -318 339 -348 373 -28 32 -29 37 -21 85 5 28 10 139 11 246 1 170 -1 207
-21 294 -12 54 -27 107 -33 117 -14 27 -33 24 -25 -3 18 -69 29 -129 24 -134
-3 -3 -93 0 -199 5 -252 14 -796 14 -1028 0 -101 -6 -185 -8 -189 -5 -3 4 2
38 11 78 10 39 15 73 13 75 -20 20 -48 -61 -72 -207 -16 -94 -16 -104 -1 -486
2 -41 -2 -46 -177 -235 -99 -107 -193 -209 -211 -227 l-31 -33 -180 36 c-98
20 -182 40 -187 44 -4 4 32 79 81 167 49 87 140 251 201 364 81 147 123 214
149 235 20 17 111 98 201 180 215 197 220 201 295 215 131 25 222 28 666 25
357 -2 471 -6 531 -18z m-61 -231 l195 -11 3 -205 c3 -282 -18 -442 -109 -805
-111 -444 -296 -1006 -505 -1537 -40 -103 -79 -199 -86 -212 -11 -21 -13 213
-10 1305 1 890 -1 1329 -8 1329 -7 0 -10 -436 -10 -1317 0 -807 -4 -1313 -9
-1307 -27 27 -253 629 -370 985 -181 553 -291 988 -321 1264 -6 61 -10 198 -8
305 l3 195 175 11 c233 14 817 15 1060 0z m-1742 -234 c-5 -13 -106 -197 -245
-447 -73 -132 -133 -248 -133 -258 0 -9 10 -21 23 -26 71 -28 73 -30 22 -25
-27 3 -62 10 -76 15 -31 12 -134 -22 -148 -49 -12 -22 23 -109 146 -367 165
-347 431 -849 606 -1145 191 -323 349 -563 574 -877 68 -94 123 -174 123 -178
0 -8 -186 -434 -444 -1017 -53 -120 -101 -241 -108 -270 -16 -75 -16 -1653 0
-2847 7 -519 11 -946 8 -948 -17 -17 -661 62 -916 113 -166 33 -432 105 -455
124 -23 19 9 607 56 1015 16 143 54 480 85 750 30 269 57 491 58 493 2 1 50
-5 107 -13 450 -69 459 -69 459 -24 0 23 20 24 120 7 59 -10 72 -10 85 2 9 10
26 88 45 210 35 227 36 261 13 282 -13 11 -133 32 -388 69 l-370 54 -3 29 c-3
26 -1 28 25 24 15 -3 169 -29 340 -58 172 -30 315 -51 318 -49 7 8 32 226 60
537 26 279 32 482 15 482 -6 0 -10 -35 -10 -86 0 -106 -72 -901 -83 -910 -3
-2 -520 89 -599 105 -32 7 -58 16 -58 20 0 4 11 83 25 176 31 218 62 463 80
633 8 74 16 137 19 139 2 3 64 -5 138 -16 73 -11 187 -27 253 -36 66 -8 137
-17 158 -20 27 -4 37 -2 37 9 0 9 -21 15 -72 20 -91 9 -475 64 -499 71 -20 7
-22 16 -39 220 -27 320 -78 607 -185 1040 -52 212 -81 356 -100 490 -71 522
-141 946 -221 1345 -45 228 -119 556 -139 621 -6 19 -18 13 285 139 350 146
655 279 835 364 160 75 180 83 173 68z m2510 -21 c102 -51 680 -305 947 -416
143 -59 264 -111 268 -115 5 -4 -16 -115 -47 -246 -102 -443 -200 -994 -281
-1574 -40 -284 -57 -378 -116 -620 -86 -349 -120 -516 -153 -741 -40 -275 -59
-510 -52 -634 5 -103 52 -485 94 -777 17 -116 17 -128 3 -132 -9 -3 -135 -26
-281 -51 -146 -25 -287 -49 -313 -54 -34 -6 -50 -5 -53 3 -8 24 -61 623 -80
900 -4 58 -9 85 -16 78 -6 -6 -6 -72 1 -193 15 -246 71 -802 82 -813 5 -6 134
12 321 44 172 29 324 54 338 54 19 1 26 -5 28 -22 2 -12 -3 -24 -10 -27 -7 -2
-175 -28 -373 -56 -400 -57 -401 -57 -398 -126 4 -83 55 -399 69 -420 17 -28
40 -29 172 -8 53 9 207 33 342 55 135 22 248 36 251 32 3 -4 11 -54 17 -112
15 -141 74 -664 117 -1037 47 -401 61 -575 76 -896 10 -230 10 -270 -2 -278
-60 -39 -430 -127 -714 -169 -642 -94 -1262 -131 -1889 -111 -188 6 -369 14
-403 18 l-63 6 0 91 c0 50 -7 692 -16 1426 -11 916 -13 1471 -7 1767 l8 432
23 23 23 23 -6 -36 c-13 -70 38 -129 111 -129 48 0 85 25 104 70 12 30 13 30
86 30 45 0 74 4 74 10 0 7 -27 10 -72 8 l-73 -3 -17 37 c-23 50 -57 71 -111
67 l-44 -4 34 40 c98 113 492 575 579 680 385 459 732 930 1021 1386 l61 96
68 7 c234 24 807 116 845 137 18 9 19 21 17 172 l-3 162 -47 0 c-46 0 -48 1
-70 45 l-23 45 -159 59 -160 60 -55 -31 -56 -30 176 351 c190 381 302 633 297
669 -4 31 -108 73 -147 58 -14 -5 -48 -12 -76 -15 -51 -6 -48 -2 23 25 12 5
22 17 22 26 0 10 -84 169 -186 353 -102 184 -188 341 -191 348 -7 17 1 15 65
-17z m-2014 -453 c69 -435 424 -1543 670 -2093 16 -36 25 -70 22 -85 -4 -21
-176 -438 -248 -599 l-24 -54 -75 104 c-285 393 -547 807 -789 1249 -204 372
-535 1040 -555 1123 -6 24 -4 29 26 41 29 11 60 10 209 -5 96 -10 207 -19 247
-20 l72 -2 193 207 c106 115 200 216 208 227 8 10 18 18 21 19 3 0 13 -50 23
-112z m1686 -115 l212 -228 76 4 c43 2 154 11 247 21 142 14 175 15 203 4 17
-7 32 -17 32 -22 0 -19 -127 -298 -249 -547 -433 -884 -888 -1606 -1449 -2304
-262 -325 -787 -945 -852 -1006 l-32 -30 8 30 c4 17 64 158 134 315 324 723
626 1425 800 1860 299 744 554 1554 631 1998 12 72 24 132 25 132 1 0 97 -102
214 -227z m-3442 -223 c124 -554 210 -1044 307 -1765 14 -104 32 -212 40 -239
12 -39 12 -51 3 -57 -7 -5 -18 -50 -25 -101 -6 -51 -25 -200 -42 -331 -35
-266 -96 -816 -107 -949 -5 -63 -4 -88 5 -88 6 0 11 6 11 14 0 37 56 543 96
871 79 643 69 576 82 530 7 -22 28 -114 48 -203 l36 -164 -31 -151 c-112 -551
-168 -1112 -236 -2362 -14 -253 -30 -530 -35 -615 -10 -149 -31 -671 -46
-1097 l-7 -202 -456 -3 c-251 -2 -458 -1 -461 2 -3 3 -4 41 -2 85 3 77 5 81
33 97 57 33 57 97 0 135 -30 20 -31 23 -15 29 37 14 54 37 54 75 0 30 -6 42
-31 62 -31 24 -31 25 -10 32 28 9 53 58 45 90 -3 14 -20 36 -38 50 -17 14 -25
25 -18 25 23 0 62 48 62 76 0 17 -12 38 -34 59 l-34 32 4 134 c2 74 9 332 14
574 19 822 52 1360 141 2328 27 296 63 726 79 955 70 963 145 1468 276 1862
65 196 210 469 235 443 4 -5 30 -109 57 -233z m5082 158 c234 -363 350 -937
440 -2163 17 -231 53 -663 80 -960 100 -1094 124 -1513 151 -2629 10 -389 10
-481 -1 -484 -55 -19 -66 -88 -20 -134 17 -17 30 -31 28 -32 -69 -30 -78 -108
-16 -146 l32 -19 -27 -10 c-29 -11 -47 -39 -47 -73 1 -28 17 -50 49 -68 l25
-13 -27 -13 c-50 -27 -62 -83 -26 -128 11 -14 29 -26 40 -26 18 0 20 -6 17
-87 -2 -49 -6 -87 -10 -85 -5 1 -212 2 -462 2 l-453 0 -7 213 c-24 744 -75
1781 -121 2457 -49 722 -100 1156 -187 1590 -17 85 -30 164 -30 175 2 31 84
379 92 388 4 4 10 -23 13 -60 3 -37 18 -162 32 -278 45 -370 84 -706 100 -865
21 -215 25 -241 36 -234 5 3 7 27 4 52 -3 26 -12 117 -20 202 -52 524 -139
1200 -155 1210 -9 6 -9 20 3 61 9 30 21 95 27 144 70 575 203 1341 326 1888
24 108 44 200 44 202 0 21 26 -8 70 -77z m-1031 -1193 c80 -31 146 -57 148
-58 1 -2 9 -19 17 -39 l16 -36 -53 -12 c-55 -11 -507 -90 -519 -90 -15 0 -8
18 38 98 44 79 88 124 164 171 19 11 37 21 40 21 3 0 70 -25 149 -55z m266
-423 c-11 -11 -516 -90 -812 -127 l-53 -7 76 129 c42 70 81 133 88 140 6 6 97
26 201 43 105 18 260 47 345 64 l155 31 3 -134 c1 -74 0 -136 -3 -139z m-2480
-2424 c37 -32 37 -83 1 -115 -34 -28 -65 -29 -100 -2 -19 15 -26 29 -26 57 0
72 71 106 125 60z m-926 -756 c258 -38 326 -50 335 -64 7 -12 1 -73 -22 -224
-18 -114 -34 -209 -36 -211 -7 -7 -689 97 -738 113 -23 7 -23 19 7 249 14 105
25 191 25 193 0 5 52 -2 429 -56z m3592 -149 c13 -115 24 -215 24 -223 0 -16
-22 -20 -473 -91 -163 -25 -276 -39 -281 -33 -12 12 -71 411 -65 429 8 20 6
19 339 66 165 23 323 45 350 49 28 4 57 8 66 9 12 1 19 -34 40 -206z m-3796
-313 c142 -22 261 -40 266 -40 13 0 11 -28 -2 -36 -6 -3 -128 11 -270 32 -252
37 -259 39 -259 61 0 13 2 23 4 23 2 0 119 -18 261 -40z m-1487 -1056 c-5 -42
-28 -43 -28 -1 0 18 3 37 7 41 12 12 25 -11 21 -40z m6542 6 c0 -42 -14 -54
-25 -20 -5 17 9 60 20 60 3 0 5 -18 5 -40z m-6542 -172 c-4 -46 -28 -49 -28
-4 0 26 4 36 16 36 11 0 14 -8 12 -32z m6549 -3 c-1 -40 -11 -45 -27 -14 -14
24 -6 49 14 49 10 0 14 -11 13 -35z m-6552 -160 c0 -16 -6 -30 -12 -32 -9 -3
-13 7 -13 32 0 25 4 35 13 33 6 -3 12 -17 12 -33z m6555 -5 c0 -41 -7 -49 -28
-28 -21 21 -7 68 20 68 4 0 8 -18 8 -40z m-6555 -150 c9 -27 -3 -60 -21 -60
-10 0 -14 12 -14 40 0 43 23 57 35 20z m6555 -20 c0 -28 -4 -40 -14 -40 -20 0
-29 35 -16 60 17 32 30 23 30 -20z m-5672 -307 l-3 -27 -457 -4 c-253 -1 -459
1 -462 6 -3 5 -2 18 1 30 l5 22 460 0 459 0 -3 -27z m5682 2 c0 -17 -7 -26
-22 -29 -13 -3 -219 -4 -458 -3 l-435 2 -3 28 -3 27 460 0 461 0 0 -25z"/>
<path d="M4908 6485 c-76 -42 -75 -160 2 -200 37 -19 63 -19 100 0 41 21 60
53 60 102 0 83 -91 138 -162 98z m111 -51 c12 -15 21 -37 21 -49 0 -35 -37
-75 -70 -75 -42 0 -59 9 -75 41 -19 36 -19 38 5 77 17 27 25 32 59 32 31 0 44
-6 60 -26z"/>
<path d="M6978 6485 c-53 -29 -72 -99 -43 -154 14 -29 68 -61 102 -61 32 0 84
39 99 76 39 93 -70 188 -158 139z m109 -47 c47 -44 13 -128 -53 -128 -68 0
-98 66 -58 128 20 30 79 30 111 0z"/>
<path d="M6607 5380 c-36 -29 -52 -81 -37 -125 16 -49 53 -75 107 -75 38 0 50
5 79 34 28 28 34 42 34 76 0 34 -6 48 -34 76 -29 29 -41 34 -79 34 -29 0 -53
-7 -70 -20z m123 -35 c47 -50 12 -135 -56 -135 -35 0 -74 42 -74 80 0 69 83
105 130 55z"/>
<path d="M5248 4215 c-15 -9 -35 -29 -43 -45 -60 -116 82 -224 176 -134 50 48
47 117 -9 167 -28 25 -90 31 -124 12z m112 -53 c30 -37 26 -75 -12 -107 -23
-20 -38 -25 -57 -20 -73 17 -85 122 -18 150 38 16 62 9 87 -23z"/>
<path d="M6608 4214 c-53 -28 -72 -98 -43 -154 42 -80 166 -77 201 5 18 43 18
59 -1 99 -28 59 -99 82 -157 50z m122 -54 c27 -50 1 -114 -50 -125 -61 -13
-109 45 -88 106 20 57 111 70 138 19z"/>
<path d="M5430 4120 c0 -6 30 -10 70 -10 40 0 70 4 70 10 0 6 -30 10 -70 10
-40 0 -70 -4 -70 -10z"/>
</g>
</svg>
