<?xml version="1.0" standalone="no"?>
<!DOCTYPE svg PUBLIC "-//W3C//DTD SVG 20010904//EN"
 "http://www.w3.org/TR/2001/REC-SVG-20010904/DTD/svg10.dtd">
<svg version="1.0" xmlns="http://www.w3.org/2000/svg"
 width="1200.000000pt" height="1200.000000pt" viewBox="0 0 1200.000000 1200.000000"
 preserveAspectRatio="xMidYMid meet">

<g transform="translate(0.000000,1200.000000) scale(0.100000,-0.100000)"
fill="#000000" stroke="none">
<path d="M5670 10544 c-121 -11 -224 -27 -312 -51 -110 -29 -95 -18 -367 -268
l-142 -130 -172 -76 c-95 -41 -264 -112 -377 -157 -113 -44 -357 -141 -543
-215 l-338 -134 -37 -49 c-172 -230 -295 -742 -507 -2111 -184 -1196 -240
-1729 -350 -3343 -56 -828 -125 -2011 -125 -2146 0 -55 3 -65 22 -75 34 -19
1074 -19 1106 -1 22 13 22 13 22 276 0 383 32 1059 80 1681 23 287 29 357 95
1040 25 259 61 637 80 840 40 416 93 918 101 954 3 13 7 21 9 19 2 -2 16 -105
29 -228 71 -628 90 -1017 65 -1305 -17 -202 -75 -563 -124 -769 -52 -221 -54
-264 -12 -284 15 -7 27 -17 27 -22 0 -5 -25 -180 -55 -387 -116 -794 -144
-995 -169 -1208 -36 -317 -60 -609 -52 -638 7 -29 29 -39 286 -124 206 -68
428 -125 590 -152 246 -41 556 -46 670 -9 197 62 371 249 464 498 l17 45 363
0 364 0 31 -76 c82 -200 216 -356 368 -426 97 -45 181 -57 393 -57 211 0 308
10 525 54 245 49 684 185 722 223 13 12 12 37 -2 188 -23 253 -69 654 -130
1144 -29 237 -65 529 -80 650 -14 121 -28 232 -31 246 -4 23 0 29 33 45 31 15
39 25 41 51 2 18 -19 131 -47 250 -44 194 -84 416 -123 688 -22 155 -15 592
16 925 36 393 68 672 77 663 4 -5 25 -197 48 -428 22 -231 59 -604 81 -830
119 -1226 186 -2272 197 -3088 4 -310 9 -440 18 -447 6 -5 157 -12 341 -16
366 -7 756 7 781 28 13 10 14 33 9 148 -4 74 -13 286 -21 470 -17 363 -50 980
-65 1205 -11 165 -56 841 -70 1070 -64 999 -95 1342 -186 2055 -127 1007 -243
1721 -355 2180 -60 246 -129 408 -226 534 -43 55 32 22 -668 295 -366 144
-759 308 -800 335 -11 8 -101 85 -200 171 -99 87 -194 168 -210 181 -33 25
-174 65 -296 84 -71 11 -779 22 -879 14z m870 -64 c81 -12 230 -49 242 -59 10
-9 38 -200 38 -257 0 -44 -1 -45 -27 -40 -213 44 -1003 58 -1323 23 -91 -10
-174 -19 -185 -20 -18 -2 -20 3 -17 53 2 30 11 98 20 150 l17 95 54 17 c56 18
222 45 321 52 117 8 788 -3 860 -14z m-1314 -219 c-10 -68 -16 -184 -16 -296
0 -175 -1 -185 -20 -195 -11 -6 -96 -83 -188 -170 -92 -88 -173 -160 -181
-160 -15 0 -215 126 -232 146 -9 11 22 64 130 233 l142 219 186 171 c103 94
188 169 190 167 2 -2 -3 -54 -11 -115z m1822 -56 c182 -160 189 -167 267 -290
44 -69 106 -166 138 -216 31 -50 57 -94 57 -99 0 -12 -216 -160 -235 -160 -8
0 -81 61 -162 136 -80 74 -165 152 -189 172 l-44 36 0 136 c0 135 -12 327 -26
408 -3 23 -4 42 0 42 3 0 91 -74 194 -165z m-1048 -2015 c0 -1062 -2 -1930 -4
-1930 -5 0 -21 49 -141 455 -99 332 -299 1039 -374 1320 -146 546 -201 985
-217 1727 l-7 305 39 6 c146 22 417 42 612 46 l92 1 0 -1930z m365 1920 c185
-10 355 -25 424 -37 l34 -6 -6 -321 c-9 -453 -38 -845 -82 -1116 -34 -210
-122 -559 -254 -1010 -21 -74 -64 -220 -94 -325 -162 -552 -318 -1055 -329
-1055 -9 0 -11 3840 -2 3864 7 19 42 20 309 6z m-1595 -116 c0 -3 -8 -18 -19
-32 -78 -111 -221 -348 -221 -368 0 -32 17 -48 128 -119 50 -32 92 -62 92 -66
0 -3 -53 -30 -117 -59 -65 -29 -133 -59 -151 -67 -59 -28 -57 -54 33 -328 272
-829 710 -1778 1292 -2802 78 -139 143 -256 143 -261 0 -4 -22 -69 -50 -145
-46 -128 -51 -147 -61 -282 -12 -152 -1 -650 21 -955 17 -234 67 -661 100
-848 16 -96 28 -177 26 -180 -2 -4 -27 -121 -56 -261 -121 -597 -291 -1167
-412 -1380 -122 -216 -282 -326 -503 -346 -83 -7 -334 9 -483 31 -257 38 -862
221 -862 260 0 8 11 137 25 287 30 314 58 539 121 972 108 741 134 924 134
931 0 8 37 3 193 -30 294 -60 587 -91 648 -68 24 10 79 65 79 80 0 4 14 108
30 232 17 123 30 234 30 246 0 13 -12 36 -26 53 -24 29 -54 41 -135 55 l-36 6
-7 1243 c-3 683 -9 1313 -12 1400 -7 154 -7 158 -28 155 l-21 -3 5 -410 c3
-225 5 -851 5 -1390 l0 -980 -35 3 c-19 2 -147 26 -285 54 -137 28 -270 53
-294 56 l-44 4 6 52 c4 28 13 103 22 166 50 364 24 883 -90 1845 -9 72 -20
204 -25 296 -32 553 -149 1274 -344 2122 -42 180 -76 330 -76 332 0 2 33 16
73 31 39 15 142 55 227 89 85 35 265 106 400 158 135 53 313 125 395 161 152
66 165 71 165 60z m2701 -53 c74 -32 186 -79 249 -104 155 -61 641 -251 764
-298 54 -21 100 -40 103 -43 5 -4 -25 -136 -137 -601 -73 -300 -179 -827 -214
-1055 -38 -247 -75 -594 -86 -801 -5 -101 -27 -346 -49 -544 -71 -627 -85
-817 -85 -1145 0 -267 2 -312 26 -475 14 -99 24 -183 21 -187 -2 -5 -12 -8
-22 -8 -10 0 -142 -25 -294 -55 -152 -30 -283 -55 -291 -55 -14 0 -16 77 -16
737 0 671 8 1049 39 1828 4 105 5 196 3 203 -2 6 -13 12 -23 12 -11 0 -21 -6
-23 -12 -15 -47 -40 -1129 -45 -1893 l-6 -889 -65 -13 c-73 -15 -108 -36 -129
-78 -12 -25 -10 -55 19 -259 18 -127 37 -242 42 -256 14 -39 48 -69 88 -80 59
-16 454 36 688 91 56 13 88 16 92 9 3 -5 11 -60 18 -122 7 -62 39 -329 72
-593 79 -633 115 -946 140 -1195 11 -113 22 -224 25 -247 5 -50 9 -47 -132
-98 -219 -80 -520 -157 -753 -192 -161 -24 -487 -24 -584 0 -108 27 -185 70
-259 145 -80 81 -94 99 -139 182 -126 229 -338 953 -438 1490 -11 58 -29 155
-40 215 -51 272 -86 550 -115 905 -18 224 -39 863 -31 942 6 62 30 115 141
314 345 613 605 1102 822 1541 120 241 127 253 157 258 17 2 123 16 236 30
172 22 320 41 759 102 71 10 77 21 84 168 6 140 0 172 -35 180 -13 3 -219 -19
-458 -49 -239 -29 -437 -52 -439 -50 -2 2 26 70 62 151 130 296 361 928 413
1126 14 54 14 61 -1 84 -9 13 -33 32 -53 40 -92 38 -227 103 -229 110 -1 4 47
41 107 82 103 70 116 84 110 121 -2 12 -180 302 -227 368 -8 12 -11 22 -6 22
6 0 70 -26 144 -59z m-2252 -471 c30 -634 87 -1006 240 -1555 185 -668 253
-905 414 -1445 141 -472 131 -431 115 -470 l-15 -35 -25 40 c-53 84 -300 528
-413 743 -370 705 -665 1359 -882 1962 -86 236 -167 496 -160 514 3 7 47 31
99 54 301 132 246 94 501 340 59 58 110 103 111 101 2 -2 9 -114 15 -249z
m1842 86 c185 -171 157 -153 441 -284 l87 -40 -10 -39 c-56 -210 -247 -736
-381 -1053 -248 -585 -654 -1398 -1041 -2085 -179 -319 -229 -405 -232 -405
-3 0 27 91 66 203 203 586 628 2012 733 2463 84 358 120 668 142 1232 4 95 11
171 15 170 5 -2 85 -74 180 -162z m-3596 -98 c2 -7 33 -141 70 -298 117 -503
209 -987 269 -1410 82 -574 88 -797 37 -1270 -34 -319 -100 -971 -125 -1245
-9 -93 -36 -379 -61 -635 -57 -598 -71 -758 -90 -1020 -39 -557 -63 -1098 -68
-1510 l-2 -235 -80 -8 c-111 -11 -945 -1 -958 12 -6 6 -4 108 7 308 102 1820
204 3230 282 3893 102 862 293 2074 419 2660 81 372 151 577 248 722 33 49 45
57 52 36z m5233 -45 c96 -141 157 -301 216 -558 111 -484 213 -1118 335 -2075
92 -719 124 -1064 186 -2040 14 -217 39 -595 55 -840 37 -555 65 -1070 85
-1530 8 -195 16 -394 19 -442 3 -81 2 -87 -18 -92 -40 -11 -611 -19 -817 -11
l-206 7 -6 452 c-10 760 -80 1878 -182 2901 -8 83 -26 267 -40 410 -14 143
-30 307 -35 365 -95 957 -98 994 -81 1200 44 538 132 1056 298 1750 41 173 86
362 99 420 39 169 36 166 92 83z m-668 -1588 c0 -69 -4 -125 -9 -125 -5 0
-100 -13 -212 -29 -287 -42 -777 -103 -794 -99 -9 2 4 40 48 136 49 105 65
132 82 133 11 0 207 24 435 54 228 29 423 54 433 54 15 1 17 -11 17 -124z
m-3827 -3224 c154 -34 307 -64 501 -96 76 -13 143 -28 149 -34 15 -15 -6 -14
-139 4 -228 32 -476 80 -646 126 -40 10 -51 29 -18 29 11 0 80 -13 153 -29z
m3857 20 c0 -18 -246 -74 -528 -120 -246 -41 -292 -46 -270 -28 9 7 122 32
250 56 128 23 292 55 363 71 139 30 185 35 185 21z m-3905 -96 c143 -35 343
-71 543 -97 l172 -23 0 -26 c0 -50 -51 -402 -61 -420 -15 -29 -43 -39 -111
-39 -117 0 -414 45 -648 97 -143 32 -160 38 -160 60 0 30 98 441 110 464 9 15
18 19 33 15 12 -4 67 -18 122 -31z m3935 32 c0 -2 25 -110 55 -240 30 -130 55
-243 55 -251 0 -13 -74 -34 -270 -76 -83 -18 -294 -50 -424 -65 -109 -12 -133
-12 -161 -1 -18 8 -36 19 -40 26 -9 14 -65 382 -65 428 0 27 4 32 23 32 72 0
638 103 737 134 41 13 90 20 90 13z m-1950 -1767 c56 -222 91 -343 157 -543
30 -93 52 -171 49 -174 -7 -7 -655 -8 -662 -1 -2 3 23 88 57 189 69 210 170
599 224 864 20 99 39 187 42 195 3 8 25 -70 48 -175 24 -104 62 -264 85 -355z"/>
<path d="M5998 5535 c-64 -35 -90 -141 -51 -207 55 -94 205 -88 255 11 l16 33
134 1 c126 2 133 3 133 22 0 19 -8 20 -130 23 l-131 3 -19 42 c-26 56 -75 87
-134 87 -25 -1 -58 -7 -73 -15z"/>
</g>
</svg>
