<?xml version="1.0" standalone="no"?>
<!DOCTYPE svg PUBLIC "-//W3C//DTD SVG 20010904//EN"
 "http://www.w3.org/TR/2001/REC-SVG-20010904/DTD/svg10.dtd">
<svg version="1.0" xmlns="http://www.w3.org/2000/svg"
 width="1200.000000pt" height="1200.000000pt" viewBox="0 0 1200.000000 1200.000000"
 preserveAspectRatio="xMidYMid meet">

<g transform="translate(0.000000,1200.000000) scale(0.100000,-0.100000)"
fill="#000000" stroke="none">
<path d="M5820 10554 c-257 -12 -443 -48 -552 -106 -72 -38 -211 -167 -330
-305 -44 -51 -85 -93 -92 -93 -7 0 -100 -33 -207 -74 -107 -41 -421 -160 -699
-265 -712 -270 -707 -268 -734 -305 -30 -40 -112 -202 -142 -283 -208 -552
-402 -2078 -479 -3758 -55 -1220 -110 -3480 -84 -3511 10 -12 88 -14 497 -12
l486 3 7 35 c4 19 12 199 18 400 6 201 16 444 21 540 15 246 77 1186 95 1420
8 107 28 384 45 615 29 402 70 884 90 1065 5 47 21 204 35 349 13 145 26 265
28 267 4 5 81 -494 107 -700 32 -252 43 -456 37 -681 -9 -318 -23 -416 -127
-906 -17 -77 -30 -150 -30 -163 0 -26 28 -56 54 -56 15 0 17 -7 11 -53 -9 -84
-82 -1011 -109 -1402 -48 -671 -55 -799 -45 -816 14 -27 213 -123 338 -164
221 -70 458 -118 688 -136 140 -12 152 -11 232 9 46 12 117 38 157 58 130 64
287 211 396 371 l43 63 203 0 202 0 2 43 c1 23 2 265 3 537 1 381 4 512 15
570 11 59 16 70 21 50 4 -14 7 -289 8 -612 l1 -588 208 0 207 0 64 -90 c118
-167 284 -311 423 -367 125 -51 178 -58 332 -45 344 29 711 121 920 230 133
69 127 54 110 317 -44 664 -135 1874 -149 1977 -4 33 -2 38 30 57 41 24 42 35
19 143 -77 366 -114 563 -125 673 -20 191 -18 651 4 847 23 208 116 842 123
836 5 -6 107 -1079 133 -1403 44 -543 135 -1879 161 -2345 6 -107 17 -360 24
-562 8 -201 17 -371 20 -377 11 -17 970 -15 984 2 23 28 -42 2663 -88 3572
-86 1676 -263 3086 -460 3650 -37 104 -129 297 -162 338 -18 22 -84 51 -323
141 -165 63 -352 134 -415 159 -175 69 -766 292 -843 319 -66 22 -73 28 -183
150 -241 266 -326 315 -615 352 -116 16 -466 27 -609 20z m666 -97 c100 -18
220 -53 229 -66 2 -5 -21 -1 -53 9 -146 46 -257 55 -647 55 -385 0 -480 -7
-623 -45 -81 -22 -95 -24 -69 -9 50 29 150 49 367 73 19 2 186 3 370 1 253 -2
357 -6 426 -18z m-56 -47 c100 -12 262 -46 293 -62 10 -5 23 -21 28 -36 14
-37 39 -135 36 -139 -2 -1 -55 8 -118 22 -176 37 -328 48 -654 48 -323 1 -488
-11 -669 -48 -61 -12 -112 -21 -114 -20 -5 4 27 135 38 155 18 35 256 79 505
94 109 7 558 -3 655 -14z m-1254 -163 c-23 -87 -39 -282 -33 -387 l6 -96 -171
-164 c-94 -91 -178 -167 -186 -168 -25 -6 -223 69 -215 82 28 49 231 350 286
426 99 135 313 377 324 366 2 -2 -3 -28 -11 -59z m1742 -29 c162 -170 200
-219 395 -507 75 -113 134 -208 130 -212 -5 -3 -56 -22 -116 -42 l-107 -36
-174 170 -174 171 0 156 c0 154 -20 331 -43 373 -18 35 0 20 89 -73z m-890
-1940 c-2 -1191 -7 -1909 -13 -1918 -7 -12 -10 -10 -16 10 -4 14 -7 877 -8
1918 -1 1889 -1 1892 19 1892 20 0 20 -3 18 -1902z m-1244 1670 c-5 -7 -65
-98 -135 -203 -153 -230 -163 -249 -150 -274 7 -12 56 -35 131 -63 67 -24 121
-48 121 -54 1 -5 -73 -59 -163 -121 -99 -68 -164 -119 -166 -131 -6 -38 255
-668 514 -1237 280 -619 755 -1515 941 -1779 l35 -49 -31 -91 c-51 -150 -61
-213 -61 -416 0 -226 36 -912 56 -1067 l5 -42 -43 -3 c-36 -2 -44 -7 -46 -26
-3 -20 1 -22 42 -22 55 0 49 18 71 -220 9 -96 30 -283 46 -415 16 -132 32
-260 35 -285 6 -48 -33 -250 -101 -521 -125 -500 -291 -865 -510 -1121 -123
-144 -272 -240 -419 -273 -68 -15 -92 -16 -214 -5 -327 28 -725 130 -889 228
l-69 40 8 109 c4 59 19 279 33 488 27 399 111 1501 120 1571 l6 41 167 -34
c92 -18 264 -50 382 -69 237 -39 260 -38 320 12 49 42 60 76 80 247 30 269 34
341 19 354 -8 6 -47 16 -87 21 -41 6 -77 13 -80 17 -3 3 0 119 7 258 35 696
22 1061 -58 1626 -21 146 -31 175 -52 154 -9 -9 -6 -51 10 -165 58 -423 75
-656 74 -1013 0 -272 -25 -841 -37 -853 -11 -10 -678 86 -692 101 -2 2 3 60
11 128 9 68 19 237 22 375 8 355 -4 486 -107 1184 -75 502 -107 777 -130 1086
-27 372 -36 466 -66 679 -72 506 -205 1010 -335 1267 -10 20 -15 39 -10 42 4
3 102 41 217 85 610 231 913 346 1039 395 77 30 141 55 143 55 2 1 0 -5 -4
-11z m2909 -167 c243 -93 552 -211 687 -262 135 -51 247 -94 249 -95 2 -2 -18
-53 -44 -115 -122 -289 -218 -661 -289 -1119 -34 -217 -52 -387 -76 -715 -23
-325 -49 -560 -96 -880 -144 -988 -139 -937 -138 -1340 0 -248 4 -362 17 -459
9 -72 15 -131 13 -133 -10 -10 -486 -84 -636 -99 l-65 -6 -3 73 c-1 41 -7 162
-12 269 -30 622 -19 920 55 1467 29 212 30 233 11 233 -8 0 -17 -3 -19 -8 -14
-21 -69 -474 -89 -717 -16 -205 -16 -670 1 -1024 11 -231 11 -295 2 -301 -7
-4 -42 -10 -79 -13 -104 -10 -100 4 -69 -284 29 -260 38 -296 89 -338 47 -39
86 -45 201 -29 168 23 590 101 649 120 13 4 18 -4 23 -38 20 -147 155 -1996
155 -2124 l0 -52 -97 -50 c-202 -103 -594 -197 -908 -218 -177 -11 -318 42
-472 178 -323 285 -540 800 -673 1593 -89 535 -185 1660 -192 2240 -2 199 -2
200 95 326 232 304 567 888 866 1511 l94 195 136 17 c537 65 837 109 853 125
16 15 16 25 2 161 -18 162 -24 175 -84 165 -28 -4 -715 -85 -725 -85 -2 0 21
55 51 123 160 357 401 939 419 1009 8 32 14 27 -179 160 -83 57 -149 108 -147
113 2 6 56 29 120 53 64 24 120 47 125 52 24 24 2 68 -138 274 -80 119 -141
216 -136 216 6 0 210 -76 453 -169z m-2492 -466 c115 -869 362 -1886 691
-2854 l80 -236 -17 -54 -17 -55 -19 23 c-30 37 -196 317 -318 536 -199 355
-591 1162 -789 1620 -164 380 -323 777 -318 791 2 6 67 54 143 107 195 135
226 163 218 196 -5 24 11 42 147 176 l152 150 8 -85 c4 -47 22 -188 39 -315z
m1964 73 c-8 -36 8 -51 208 -190 86 -61 157 -112 157 -114 0 -2 -31 -81 -69
-176 -329 -829 -820 -1859 -1179 -2473 -112 -193 -331 -529 -340 -521 -2 3 3
24 13 48 96 237 349 1040 491 1558 194 704 337 1430 401 2027 l17 161 153
-146 c142 -134 153 -148 148 -174z m-3783 -88 c120 -288 216 -661 282 -1090
45 -296 49 -350 37 -515 -20 -273 -51 -751 -91 -1435 -47 -790 -79 -1290 -120
-1885 -16 -236 -41 -605 -55 -820 -14 -214 -39 -592 -56 -840 -17 -247 -36
-529 -42 -625 l-12 -175 -379 -3 -379 -2 6 472 c7 463 31 1511 42 1838 67
1942 152 3012 321 4025 89 537 154 785 267 1014 50 102 90 146 126 139 7 -2
31 -46 53 -98z m5338 90 c32 0 119 -160 175 -320 203 -583 390 -2089 465
-3745 37 -817 90 -2711 90 -3217 l0 -198 -375 0 -375 0 -4 23 c-2 12 -21 272
-40 577 -20 305 -56 848 -81 1205 -63 923 -118 1766 -165 2535 -22 366 -42
697 -45 735 -29 382 -56 863 -51 920 20 226 96 649 163 910 41 159 126 417
172 519 24 52 35 67 47 62 9 -3 20 -6 24 -6z m-849 -1478 c0 -31 4 -81 8 -110
7 -48 6 -53 -13 -57 -22 -5 -687 -89 -813 -103 -40 -5 -73 -5 -73 -2 0 4 13
33 29 66 15 32 40 86 55 120 l27 60 382 45 c210 25 385 44 390 42 4 -3 7 -30
8 -61z m453 -807 c37 -583 57 -900 76 -1215 29 -467 109 -1702 115 -1775 6
-63 11 -140 75 -1090 63 -946 70 -1048 70 -1082 0 -30 -3 -33 -29 -33 -26 0
-29 3 -35 46 -3 26 -6 99 -6 163 0 265 -34 888 -100 1851 -17 239 -39 566 -50
725 -34 493 -39 572 -75 1190 -19 330 -42 701 -50 825 -25 376 -35 637 -28
718 l7 77 8 -75 c3 -41 14 -187 22 -325z m-4597 123 c-3 -145 -13 -362 -21
-483 -9 -121 -27 -425 -41 -675 -31 -551 -67 -1135 -100 -1605 -78 -1106 -123
-1857 -130 -2200 -3 -148 -8 -289 -11 -312 -5 -40 -8 -43 -35 -43 -17 0 -29 5
-29 13 0 8 9 139 20 293 10 153 28 428 40 609 22 362 91 1391 115 1715 8 113
30 462 50 775 140 2281 133 2175 143 2175 3 0 2 -118 -1 -262z m448 -2662 c88
-14 278 -41 422 -59 145 -19 265 -35 267 -38 4 -5 -40 -412 -49 -448 -10 -41
-62 -81 -105 -81 -101 0 -830 140 -830 160 0 4 18 92 39 196 22 104 44 215 51
247 9 46 15 57 28 53 9 -3 89 -16 177 -30z m3869 12 c24 -115 86 -421 91 -449
l7 -36 -95 -22 c-145 -34 -426 -86 -594 -112 -146 -22 -154 -22 -188 -6 -23
11 -41 29 -49 50 -13 30 -68 458 -60 466 2 2 120 19 263 37 143 19 338 47 433
63 95 16 176 29 180 30 4 0 10 -9 12 -21z"/>
<path d="M5985 5779 c-76 -67 -63 -178 27 -225 62 -32 144 -4 175 61 16 33 19
35 69 35 33 0 56 5 64 15 20 24 2 35 -60 35 -55 0 -60 2 -66 25 -3 14 -22 38
-40 55 -29 25 -43 30 -84 30 -41 0 -55 -5 -85 -31z m120 -21 c29 -13 55 -55
55 -87 0 -11 -12 -33 -26 -50 -21 -25 -33 -31 -65 -31 -95 0 -122 120 -38 166
30 17 42 17 74 2z"/>
<path d="M6071 4411 c-8 -5 -11 -16 -8 -25 5 -13 24 -16 102 -16 78 0 97 3
102 16 9 25 -16 34 -102 34 -44 0 -86 -4 -94 -9z"/>
</g>
</svg>
